<svg width="50" height="50" viewBox="0 0 50 50" fill="none" xmlns="http://www.w3.org/2000/svg">
<path d="M34.7222 18.75C34.7222 18.75 36.6507 15.8333 30.8334 10.9722C25.0161 6.11111 27.0833 1.52778 27.0833 1.52778C27.0833 1.52778 21.5505 9.16667 27.8586 13.6111C34.1667 18.0556 34.7222 18.75 34.7222 18.75Z" fill="#000000"/>
<path d="M22.5533 26.3368C24.0503 25.439 29.95 21.5071 26.1111 17.3611C21.7387 12.6389 23.316 9.16666 23.316 9.16666C23.316 9.16666 17.6389 14.0278 21.1245 20C23.7174 24.4427 23.0601 25.888 22.5533 26.3368C22.3452 26.4616 22.2222 26.5278 22.2222 26.5278C22.2222 26.5278 22.3788 26.4913 22.5533 26.3368Z" fill="#000000"/>
<path d="M28.8628 17.9952C28.8628 17.9952 34.8958 23.5085 34.2422 27.2424C33.5886 30.9764 33.6239 34.1941 28.3829 37.585C23.4671 40.7656 26.0178 45.0863 26.3532 45.6102C26.3648 45.6277 26.3764 45.6453 26.3879 45.6629C26.3879 45.6629 26.3754 45.6449 26.3532 45.6102C20.2414 36.3564 11.6003 40.371 13.8963 46.4942C16.1966 52.6289 10.3786 42.3658 13.7822 36.0782C17.1858 29.7905 19.9241 32.5619 26.1993 28.4417C32.4745 24.3215 28.8628 17.9952 28.8628 17.9952Z" fill="#000000"/>
<path d="M21.2056 21.0646C21.2056 21.0646 20.0759 29.1968 15.6209 29.2966C11.1659 29.3964 8.32389 44.5819 9.54826 35.2905C10.7726 25.9992 6.74174 30.5608 6.74174 30.5608C6.74174 30.5608 7.50845 25.3095 13.8048 25.9129C20.1011 26.5163 21.2056 21.0646 21.2056 21.0646Z" fill="#000000"/>
<path d="M35.8891 22.5C35.8891 22.5 40.1809 25.4055 40.4163 29.1535C40.595 31.9976 45.1058 36.138 40.0418 34.7222C34.9778 33.3064 30.5974 41.1111 30.5974 41.1111C30.5974 41.1111 31.9862 35.9722 35.8891 33.8682C39.792 31.7642 35.8891 22.5 35.8891 22.5Z" fill="#000000"/>
</svg>
